<?xml version="1.0" standalone="no"?>
<!DOCTYPE svg PUBLIC "-//W3C//DTD SVG 20010904//EN"
 "http://www.w3.org/TR/2001/REC-SVG-20010904/DTD/svg10.dtd">
<svg version="1.0" xmlns="http://www.w3.org/2000/svg"
 width="640.000000pt" height="637.000000pt" viewBox="0 0 640.000000 637.000000"
 preserveAspectRatio="xMidYMid meet">
<style>
  /* ライトモードはデフォルトで黒 */
  .icon-fill {
    fill: #000000;
  }
  
  /* ダークモードでは白に切り替え */
  @media (prefers-color-scheme: dark) {
    .icon-fill {
      fill: #ffffff;
    }
  }
</style>
<g transform="translate(0.000000,637.000000) scale(0.100000,-0.100000)"
class="icon-fill" stroke="none">
<path d="M2950 6339 c-924 -55 -1893 -594 -2367 -1315 -118 -180 -201 -363
-249 -549 -27 -102 -29 -123 -28 -290 1 -151 4 -193 22 -258 53 -192 153 -357
310 -509 124 -120 243 -199 520 -342 260 -135 387 -216 500 -315 242 -213 315
-483 196 -726 -97 -197 -340 -311 -586 -275 -78 11 -208 46 -208 56 0 4 371
426 549 623 l84 95 -39 34 c-91 80 -214 182 -218 182 -3 0 -46 -46 -97 -102
-51 -57 -183 -201 -293 -320 l-201 -218 -16 33 c-28 54 -127 358 -153 468 -37
158 -56 298 -63 467 l-6 154 -102 101 c-112 111 -199 234 -247 350 -42 100
-77 220 -84 293 -9 83 -22 73 -62 -49 -61 -182 -92 -434 -92 -742 0 -538 101
-977 327 -1429 394 -787 1128 -1390 1962 -1612 340 -91 583 -119 966 -111 279
6 365 14 615 63 602 117 1149 411 1590 854 270 270 462 548 619 897 395 873
372 1873 -64 2768 -35 72 -78 155 -96 185 -28 48 -33 52 -40 35 -5 -11 -43
-195 -84 -410 -42 -214 -85 -425 -95 -468 l-20 -78 30 -147 c42 -212 54 -339
54 -582 -1 -255 -19 -407 -74 -625 -48 -191 -94 -313 -187 -497 -120 -239
-254 -427 -438 -617 -511 -527 -1221 -811 -1970 -788 -539 16 -1013 176 -1429
482 l-108 79 79 13 c130 22 223 52 338 108 385 189 595 543 595 1005 0 285
-93 517 -309 769 l-81 95 22 25 c13 14 40 45 62 68 l40 43 388 -386 c341 -339
390 -385 404 -373 18 15 202 244 589 734 147 187 279 351 291 364 l23 25 192
-197 c105 -108 196 -197 203 -197 11 0 160 167 704 793 l163 188 37 -31 c20
-16 84 -75 142 -129 58 -55 108 -97 111 -93 14 16 194 1030 185 1039 -3 4 -21
1 -39 -5 -599 -201 -941 -324 -952 -343 -3 -4 16 -22 42 -40 27 -18 87 -61
135 -97 l87 -65 -24 -29 c-14 -16 -56 -64 -94 -106 -38 -42 -165 -185 -281
-317 -117 -132 -218 -246 -225 -253 -13 -14 -30 3 -317 302 -62 66 -99 97
-107 92 -12 -8 -512 -631 -776 -969 -71 -91 -133 -165 -137 -164 -3 1 -129
121 -280 267 -151 146 -322 309 -381 363 l-106 99 -26 -29 c-14 -15 -95 -110
-182 -210 l-156 -181 -56 37 c-75 51 -261 154 -455 253 -193 97 -275 149 -342
214 -104 102 -153 202 -161 330 -21 312 205 538 537 538 207 -1 368 -65 577
-230 l91 -73 83 102 c124 153 229 278 267 319 19 20 31 41 28 47 -13 20 -192
149 -271 194 -149 87 -377 167 -516 183 -33 4 -59 9 -59 13 1 7 121 88 225
152 174 106 443 215 680 275 313 80 762 96 1100 38 506 -86 981 -327 1368
-693 l87 -83 38 10 c146 39 529 144 540 148 16 5 6 19 -126 168 -143 160 -364
350 -567 486 -335 224 -714 387 -1101 474 -287 65 -649 93 -954 75z"/>
<path d="M2760 4598 c0 -552 4 -1008 8 -1013 18 -24 293 -285 301 -285 8 0 51
52 283 345 l95 121 4 914 4 915 -347 3 -348 2 0 -1002z"/>
<path d="M3360 2653 c-88 -91 -171 -180 -228 -246 l-32 -38 -160 153 c-88 84
-165 155 -170 156 -7 2 -10 -186 -10 -532 l0 -536 1122 2 1122 3 73 90 c111
135 209 286 274 420 33 66 59 126 59 133 0 9 -203 12 -980 12 l-980 0 -2 235
-3 235 -85 -87z"/>
</g>
</svg>
